<svg width="495" height="215" viewBox="0 0 495 215" fill="none" xmlns="http://www.w3.org/2000/svg">
<defs>
<linearGradient id="cfLogo" x1="0" y1="0" x2="1" y2="1">
<stop offset="0" stop-color="#1f6feb"/><stop offset="1" stop-color="#0a4bc2"/>
</linearGradient>
<linearGradient id="cfBar" x1="0" y1="0" x2="1" y2="0">
<stop offset="0" stop-color="#0000FF" stop-opacity="0.55"/>
<stop offset="1" stop-color="#7272ff"/>
</linearGradient>
</defs>
<rect x="0.5" y="0.5" width="494" height="214" rx="12" fill="#0d1117" stroke="#30363d"/>
<rect x="0.5" y="0.5" width="494" height="4" rx="2" fill="#0000FF"/>
<style>text{font-family:'Segoe UI',Ubuntu,-apple-system,sans-serif}
.title{font-size:16px;font-weight:700;fill:#e6edf3}
.handle{font-size:11px;fill:#7d8590}
.lbl{font-size:10px;font-weight:600;letter-spacing:.5px;fill:#7d8590}
.val{font-size:27px;font-weight:800}
.sub{font-size:10.5px;fill:#6e7681}
.pill{font-size:11px;font-weight:700;fill:#0000FF}
.foot{font-size:9.5px;fill:#565c64}</style>
<circle cx="34" cy="38" r="15" fill="url(#cfLogo)"/>
<text x="34" y="43" text-anchor="middle" font-size="14" font-weight="800" fill="#fff" font-family="Segoe UI,sans-serif">CF</text>
<text x="59" y="34" class="title">Codeforces</text>
<text x="59" y="49" class="handle">@PriyanshuIITGHY2006</text>
<rect x="393" y="24" width="86" height="26" rx="13" fill="#0000FF" fill-opacity="0.12" stroke="#0000FF" stroke-opacity="0.5"/>
<text x="436" y="41" text-anchor="middle" class="pill">Expert</text>
<line x1="16" y1="64" x2="479" y2="64" stroke="#21262d"/>
<rect x="16" y="76" width="147" height="72" rx="8" fill="#0f141b" stroke="#21262d"/><text x="31" y="99" class="lbl">CURRENT RATING</text><text x="31" y="128" class="val" fill="#0000FF">1605</text><text x="31" y="142" class="sub">Expert</text><rect x="174" y="76" width="147" height="72" rx="8" fill="#0f141b" stroke="#21262d"/><text x="189" y="99" class="lbl">MAX RATING</text><text x="189" y="128" class="val" fill="#0000FF">1605</text><text x="189" y="142" class="sub">Expert</text><rect x="332" y="76" width="147" height="72" rx="8" fill="#0f141b" stroke="#21262d"/><text x="347" y="99" class="lbl">SOLVED</text><text x="347" y="128" class="val" fill="#e6edf3">450+</text><text x="347" y="142" class="sub">rated 800 – 2400</text>
<text x="16" y="172" class="lbl" fill="#8b949e" style="letter-spacing:0">Progress to Legendary Grandmaster · 3500</text>
<rect x="16" y="180" width="463" height="8" rx="4" fill="#21262d"/>
<rect x="16" y="180" width="212" height="8" rx="4" fill="url(#cfBar)"/>
<text x="16" y="205" class="foot">Auto-updated daily via GitHub Actions · codeforces.com/profile/PriyanshuIITGHY2006</text>
</svg>